<svg xmlns="http://www.w3.org/2000/svg" viewBox="0 0 16 16" width="512" height="512" shape-rendering="crispEdges" role="img" aria-label="mmux">
  <g fill="#86efac"><rect x="0" y="0" width="15" height="1"/><rect x="0" y="1" width="1" height="14"/></g>
  <g fill="#16a34a"><rect x="15" y="0" width="1" height="16"/><rect x="0" y="15" width="15" height="1"/></g>
  <g fill="#4ade80"><rect x="1" y="1" width="14" height="3"/><rect x="1" y="4" width="2" height="11"/><rect x="13" y="4" width="2" height="11"/><rect x="5" y="6" width="2" height="9"/><rect x="9" y="6" width="2" height="9"/><rect x="3" y="12" width="2" height="3"/><rect x="7" y="12" width="2" height="3"/><rect x="11" y="12" width="2" height="3"/></g>
  <g fill="#0d0e10"><rect x="3" y="4" width="10" height="2"/><rect x="3" y="6" width="2" height="6"/><rect x="7" y="6" width="2" height="6"/><rect x="11" y="6" width="2" height="6"/></g>
</svg>
